<svg height="512" viewBox="0 0 64 64" width="512" xmlns="http://www.w3.org/2000/svg"><g id="Flat"><g id="Color_copy" data-name="Color copy"><g><g><path d="m3 31h58v30h-58z" fill="#84d2f4"/><path d="m61 54v7h-58v-30h9v9a14 14 0 0 0 14 14z" fill="#57b7eb"/><path d="m27.833 53.2-7-16a2 2 0 0 0 -3.666 0l-7 16a2 2 0 1 0 3.666 1.6l1.225-2.8h7.884l1.225 2.8a2 2 0 1 0 3.666-1.6zm-11.025-5.2 2.192-5.01 2.192 5.01z" fill="#f9e109"/><path d="m24.471 50h-7.413a2 2 0 0 1 -1.832-2.8l4.774-10.917a1.982 1.982 0 0 0 -1-.283 2 2 0 0 0 -1.833 1.2l-6.961 15.91a2.065 2.065 0 0 0 .7 2.564 2 2 0 0 0 2.931-.872l1.221-2.802h7.884l1.225 2.8a2 2 0 0 0 2.723.99 2.082 2.082 0 0 0 .894-2.7l-.564-1.29a3 3 0 0 0 -2.749-1.8z" fill="#fcbc04"/><path d="m40 56h-6a2 2 0 0 1 -2-2v-16a2 2 0 0 1 2-2h6a8.009 8.009 0 0 1 8 8v4a8.009 8.009 0 0 1 -8 8zm-4-4h4a4 4 0 0 0 4-4v-4a4 4 0 0 0 -4-4h-4z" fill="#f9e109"/><path d="m37 54a3 3 0 0 1 -3-3v-15a2 2 0 0 0 -2 2v16a2 2 0 0 0 2 2h6a7.957 7.957 0 0 0 5.274-2z" fill="#fcbc04"/><g fill="#e59730"><path d="m34 56h6a7.957 7.957 0 0 0 5.274-2h-13.274a2 2 0 0 0 2 2z"/><path d="m18.79 52h-3.73l-1.23 2.8a2 2 0 1 1 -3.66-1.6l3.16-7.23a14.1 14.1 0 0 0 5.46 6.03z"/><path d="m28 54a2 2 0 0 1 -1.2 1.83 1.889 1.889 0 0 1 -.8.17 2 2 0 0 1 -1.83-1.2l-.43-.98a14.066 14.066 0 0 0 2.26.18z"/><path d="m26 54a14.066 14.066 0 0 1 -2.26-.18l.43.98a2 2 0 0 0 1.83 1.2 1.889 1.889 0 0 0 .8-.17 2 2 0 0 0 1.2-1.83zm-12.67-8.03-3.16 7.23a2 2 0 1 0 3.66 1.6l1.23-2.8h3.73a14.1 14.1 0 0 1 -5.46-6.03z"/></g></g><g><g fill="#f9e109"><path d="m45.343 18a4.966 4.966 0 0 0 3.535-1.464l4.829-4.829a1 1 0 0 0 -1.414-1.414l-4.829 4.829a3.02 3.02 0 0 1 -2.121.878h-1.343v-3a3 3 0 0 0 -3-3h-4a3 3 0 0 0 -3 3v7a1 1 0 0 1 -1 1h-6a1 1 0 0 0 0 2h6a3 3 0 0 0 3-3v-7a1 1 0 0 1 1-1h4a1 1 0 0 1 1 1v3h-1a3 3 0 0 0 -3 3v5a1 1 0 0 1 -1 1h-10a1 1 0 0 0 0 2h10a3 3 0 0 0 3-3v-5a1 1 0 0 1 1-1h1v3a3 3 0 0 0 3 3h2a1 1 0 0 0 0-2h-2a1 1 0 0 1 -1-1v-3z"/><path d="m58 3a3 3 0 1 0 3 3 3 3 0 0 0 -3-3zm0 4a1 1 0 1 1 1-1 1 1 0 0 1 -1 1z"/><path d="m12 3a3 3 0 1 0 3 3 3 3 0 0 0 -3-3zm0 4a1 1 0 1 1 1-1 1 1 0 0 1 -1 1z"/><path d="m58.121 16.879a1 1 0 0 0 -1.414 0l-.707.707-.707-.707a1 1 0 1 0 -1.414 1.414l.707.707-.707.707a1 1 0 1 0 1.414 1.414l.707-.707.707.707a1 1 0 1 0 1.414-1.414l-.707-.707.707-.707a1 1 0 0 0 0-1.414z"/><path d="m39.879 7.535a1 1 0 0 0 1.414 0l.707-.707.707.707a1 1 0 0 0 1.414-1.414l-.707-.707.707-.707a1 1 0 1 0 -1.414-1.414l-.707.707-.707-.707a1 1 0 0 0 -1.414 1.414l.707.707-.707.707a1 1 0 0 0 0 1.414z"/><path d="m30 8v8a1 1 0 0 1 -1 1h-2a1 1 0 0 0 0 2h2a3 3 0 0 0 3-3v-8a3 3 0 0 0 -3-3h-7a1 1 0 0 0 0 2h7a1 1 0 0 1 1 1z"/><path d="m56 26a1 1 0 0 0 -1 1v14.879a4.1 4.1 0 0 1 -1.207 2.914 6.081 6.081 0 0 0 -1.793 4.328v6.879a1 1 0 0 0 2 0v-6.879a4.1 4.1 0 0 1 1.207-2.914 6.081 6.081 0 0 0 1.793-4.328v-14.879a1 1 0 0 0 -1-1z"/></g><path d="m7 19h8v8h-8z" fill="#c4f236"/><g fill="#f9e109"><path d="m23 30-8-3v-8l8-3z"/><path d="m10.515 35a1.94 1.94 0 0 1 -1.882-1.47l-1.633-6.53h4l1.4 5.589a1.94 1.94 0 0 1 -1.885 2.411z"/><path d="m7 19a0 0 0 0 1 0 0v8a0 0 0 0 1 0 0 4 4 0 0 1 -4-4 4 4 0 0 1 4-4z"/><path d="m55 14-5-5h5z"/><path d="m22 9v-6l-4 3z"/><path d="m59 27h-6l3-4z"/><path d="m47 26v-6l4 3z"/></g><path d="m22.191 26.947a8 8 0 0 1 -5.191-7.491v-1.206l-2 .75v8l8 3v-2.75z" fill="#fcbc04"/><path d="m13 19v5a4 4 0 0 1 -4-4v-1h-2v8h8v-8z" fill="#a1d51c"/><path d="m5.911 19.169a3.97 3.97 0 0 1 -2.822 4.662 4 4 0 0 0 3.911 3.169v-8a3.959 3.959 0 0 0 -1.089.169z" fill="#fcbc04"/><path d="m9.621 31.485a2 2 0 0 1 1.879-2.478l-.5-2.007h-4l1.633 6.53a1.939 1.939 0 0 0 1.867 1.47z" fill="#fcbc04"/></g></g></g></g></svg>