<svg height="512" viewBox="0 0 64 64" width="512" xmlns="http://www.w3.org/2000/svg"><g id="Flat"><g id="Color_copy" data-name="Color copy"><g><g><path d="m33 6v10a3 3 0 0 0 3 3h1v8l6-8h9a3 3 0 0 0 3-3v-10a3 3 0 0 0 -3-3h-16a3 3 0 0 0 -3 3z" fill="#c4f236"/><path d="m55 16a3 3 0 0 1 -3 3h-9l-6 8v-8h-1a3 3 0 0 1 -3-3v-10a3 3 0 0 1 3-3h3v3a10 10 0 0 0 10 10z" fill="#a1d51c"/><path d="m40 7h8v8h-8z" fill="#f9e109"/><path d="m46 13a4 4 0 0 1 -4-4v-2h-2v8h8v-2z" fill="#fcbc04"/><path d="m44.65 15h-4.65v-4.65a9.986 9.986 0 0 0 4.65 4.65z" fill="#e59730"/><path d="m45 7v2a1 1 0 0 1 -2 0v-2z" fill="#fcbc04"/></g><g><path d="m10.515 43a1.94 1.94 0 0 1 -1.882-1.47l-1.633-6.53h4l1.4 5.589a1.94 1.94 0 0 1 -1.885 2.411z" fill="#f9e109"/><path d="m10.093 40.824a3 3 0 0 1 1.493-3.481l-.586-2.343h-4l1.633 6.53a1.94 1.94 0 0 0 1.882 1.47 1.753 1.753 0 0 0 .193-.023z" fill="#fcbc04"/><path d="m7 27v8a25.428 25.428 0 0 1 11.367 2.683l.633.317v-14l-.633.317a25.428 25.428 0 0 1 -11.367 2.683z" fill="#c4f236"/><path d="m7 27a0 0 0 0 1 0 0v8a0 0 0 0 1 0 0 4 4 0 0 1 -4-4 4 4 0 0 1 4-4z" fill="#f9e109"/><path d="m14.385 32a4.615 4.615 0 0 0 4.615-4.615v10.615l-.633-.317a25.428 25.428 0 0 0 -11.367-2.683v-8a7.954 7.954 0 0 0 7.385 5z" fill="#a1d51c"/><path d="m6 29v-1.859a3.977 3.977 0 0 1 1-.141v8a3.988 3.988 0 0 1 -3.591-2.268 3.993 3.993 0 0 0 2.591-3.732z" fill="#fcbc04"/></g><g><path d="m53.485 43a1.94 1.94 0 0 0 1.882-1.47l1.633-6.53h-4l-1.4 5.589a1.94 1.94 0 0 0 1.885 2.411z" fill="#f9e109"/><path d="m57 27v8a25.428 25.428 0 0 0 -11.367 2.683l-.633.317v-14l.633.317a25.428 25.428 0 0 0 11.367 2.683z" fill="#c4f236"/><path d="m61 27a0 0 0 0 1 0 0v8a0 0 0 0 1 0 0 4 4 0 0 1 -4-4 4 4 0 0 1 4-4z" fill="#f9e109" transform="matrix(-1 0 0 -1 118 62)"/><path d="m49.615 32a4.615 4.615 0 0 1 -4.615-4.615v10.615l.633-.317a25.428 25.428 0 0 1 11.367-2.683v-8a7.954 7.954 0 0 1 -7.385 5z" fill="#a1d51c"/><g fill="#fcbc04"><path d="m58 29v-1.859a3.977 3.977 0 0 0 -1-.141v8a3.988 3.988 0 0 0 3.591-2.268 3.993 3.993 0 0 1 -2.591-3.732z"/><path d="m52.387 42.647.784-2.746a3.991 3.991 0 0 1 3.318-2.857l.511-2.044h-4l-1.4 5.589a1.928 1.928 0 0 0 .787 2.058z"/></g></g><g><path d="m23 23h10a6 6 0 0 1 6 6v4a0 0 0 0 1 0 0h-12a4 4 0 0 1 -4-4v-6a0 0 0 0 1 0 0z" fill="#84d2f4"/><path d="m36 30a2 2 0 0 1 -2-2 2 2 0 0 0 -2-2h-2a3.992 3.992 0 0 1 -3.859-3h-3.141v6a4 4 0 0 0 4 4h12v-3z" fill="#57b7eb"/><path d="m25 43h14a6 6 0 0 1 6 6v12a0 0 0 0 1 0 0h-26a0 0 0 0 1 0 0v-12a6 6 0 0 1 6-6z" fill="#84d2f4"/><path d="m39 56v-5a3 3 0 0 0 -3 3v2a10 10 0 0 1 -10-10v-2.26a6.961 6.961 0 0 0 8.877-.74h-9.877a6 6 0 0 0 -6 6v12h26v-5z" fill="#57b7eb"/><path d="m28 39h8a0 0 0 0 1 0 0v5a4 4 0 0 1 -4 4 4 4 0 0 1 -4-4v-5a0 0 0 0 1 0 0z" fill="#fcbc04"/><path d="m28 44a4.032 4.032 0 0 0 .073.725 6.966 6.966 0 0 0 7.927-3.133v-2.592h-8z" fill="#e59730"/><path d="m32 43a7 7 0 0 1 -7-7v-4.9l.347-.012a6.736 6.736 0 0 0 4.53-1.969l.123-.119a6.737 6.737 0 0 0 5.606 3h3.394v4a7 7 0 0 1 -7 7z" fill="#f9e109"/><path d="m35.606 32a6.738 6.738 0 0 1 -5.606-3l-.123.123a6.736 6.736 0 0 1 -4.53 1.969l-.347.008v4.9a6.99 6.99 0 0 0 10.659 5.96c-.218.02-.436.04-.659.04a7 7 0 0 1 -7-7v-2.561a6.717 6.717 0 0 0 1.877-1.316l.123-.123a6.738 6.738 0 0 0 5.606 3h3.394v-2z" fill="#fcbc04"/><circle cx="35" cy="35" fill="#57b7eb" r="1"/><circle cx="29" cy="35" fill="#57b7eb" r="1"/><path d="m38 61v-9a1 1 0 0 1 2 0v9z" fill="#4891d3"/><path d="m24 61v-9a1 1 0 0 1 2 0v9z" fill="#4891d3"/><g fill="#f9e109"><path d="m29 15a1 1 0 0 1 -1-1v-4a1 1 0 0 1 2 0v4a1 1 0 0 1 -1 1z"/><path d="m25 17a1 1 0 0 1 -.8-.4l-3-4a1 1 0 0 1 1.6-1.2l3 4a1 1 0 0 1 -.8 1.6z"/><path d="m22 20a.976.976 0 0 1 -.244-.03l-4-1a1 1 0 1 1 .486-1.94l4 1a1 1 0 0 1 -.242 1.97z"/></g></g></g></g></g></svg>