<svg height="512" viewBox="0 0 64 64" width="512" xmlns="http://www.w3.org/2000/svg"><g id="Flat"><g id="Color_copy" data-name="Color copy"><g><path d="m3.781 21.5v19.5a1 1 0 0 0 2 0v-19.5a2.5 2.5 0 0 1 2.5-2.5 4.505 4.505 0 0 0 4.5-4.5v-7.5a1 1 0 1 0 -2 0v7.5a2.5 2.5 0 0 1 -2.5 2.5 4.5 4.5 0 0 0 -4.5 4.5z" fill="#f9e109"/><path d="m56 50a1 1 0 0 0 -1 1v5a3 3 0 0 1 -3 3h-24a1 1 0 0 0 0 2h24a5.006 5.006 0 0 0 5-5v-5a1 1 0 0 0 -1-1z" fill="#f9e109"/><path d="m37 3 4.969 5.454 7.031-2.239 1.576 7.209 7.209 1.576-2.239 7.031 5.454 4.969-5.454 4.969 2.239 7.031-7.209 1.576-1.576 7.209-7.031-2.239-4.969 5.454-4.969-5.454-7.031 2.239-1.576-7.209-7.209-1.576 2.239-7.031-5.454-4.969 5.454-4.969-2.239-7.031 7.209-1.576 1.576-7.209 7.031 2.239z" fill="#f9e109"/><path d="m33.261 40.957-5.291 1.684-1.187-5.424-5.424-1.187 1.684-5.29-4.104-3.74 4.104-3.74-1.684-5.29 5.424-1.187 1.187-5.424 5.291 1.684 3.739-4.104 3.739 4.104 5.291-1.684 1.187 5.424 5.424 1.187-1.684 5.29 4.104 3.74-4.104 3.74 1.684 5.29-5.424 1.187-1.187 5.424-5.291-1.684-3.739 4.104z" fill="#fcbc04"/><g><path d="m9.16 41.987h8v12h-8z" fill="#c4f236" transform="matrix(-.866 .5 -.5 -.866 48.551 82.964)"/><g fill="#84d2f4"><path d="m6 55.585 6.696-.402-6-10.392-3.696 5.598z"/><path d="m21.241 60.642a2.67 2.67 0 0 0 .633-4.118l-3.982-4.341-3.464 2 3.165 5.481a2.67 2.67 0 0 0 3.648.978z"/><path d="m23.749 30.326 10 17.321a23.811 23.811 0 0 0 -13.441 3.141l-.684.4-6-10.392.684-.395a23.817 23.817 0 0 0 9.441-10.075z"/></g><path d="m17.124 46.853 2.5 4.33.684-.4a23.776 23.776 0 0 1 13.441-3.141l-7-12.124a21.952 21.952 0 0 1 -9.6 11.315z" fill="#57b7eb"/><path d="m5.964 47.523-.5-.866 1.236-1.866 6 10.392-6.7.4-1.05-1.82a5 5 0 0 0 1.014-6.24z" fill="#57b7eb"/><path d="m14.428 54.183 1.515 2.624a3 3 0 0 1 3.343.749l2.469 2.7a2.672 2.672 0 0 0 .121-3.731l-3.984-4.339z" fill="#57b7eb"/><path d="m17.124 46.853 2.5 4.33-6.928 4-6-10.392.671.694a8.007 8.007 0 0 0 9.757 1.368z" fill="#a1d51c"/><path d="m12.16 46.25a1.007 1.007 0 0 0 -1.37-.36l-2.59 1.5 1 1.73 2.59-1.5a1 1 0 0 0 .37-1.37z" fill="#7ab92d"/><path d="m12.79 49.35-2.59 1.5 1 1.73 2.59-1.5a.988.988 0 0 0 .37-1.36 1.01 1.01 0 0 0 -1.37-.37z" fill="#7ab92d"/><path d="m5.23 50.25-1.73 1 1 1.74 1.73-1a1 1 0 1 0 -1-1.74z" fill="#4891d3"/></g><path d="m59 52h-6l3-4z" fill="#f9e109"/><path d="m15 7h-6l3-4z" fill="#f9e109"/><path d="m30.1 18.83a1 1 0 1 0 1-1.732l-1.732-1 1-1.732 2.6 1.5a1 1 0 1 0 1-1.732l-3.464-2a1 1 0 0 0 -1.366.366l-4 6.928a1 1 0 1 0 1.732 1l1.5-2.6z" fill="#57b7eb"/><path d="m38.024 27.687a1.008 1.008 0 0 0 .466.607l3.465 2a.992.992 0 0 0 .5.134 1 1 0 0 0 .5-1.866l-2.6-1.5 1-1.732 1.732 1a1 1 0 1 0 1-1.732l-1.731-1 1-1.732 2.6 1.5a1 1 0 0 0 1-1.732l-3.465-2a1 1 0 0 0 -1.367.366l-4 6.928a1.006 1.006 0 0 0 -.1.759z" fill="#57b7eb"/><path d="m45.052 30.928a1 1 0 0 0 .366 1.366l3.465 2a1 1 0 0 0 1-1.732l-2.6-1.5 1-1.732 1.733 1a.992.992 0 0 0 .5.134 1 1 0 0 0 .5-1.866l-1.732-1 1-1.732 2.6 1.5a1 1 0 0 0 1-1.732l-3.465-2a1 1 0 0 0 -1.367.366z" fill="#57b7eb"/><path d="m31.2 22.928a1 1 0 1 0 1.732 1l1.5-2.6.866.5a1 1 0 0 1 .367 1.366l-1 1.732a1 1 0 1 0 1.731 1l1-1.732a2.979 2.979 0 0 0 .324-2.121 2.968 2.968 0 0 0 1.676-1.343 3 3 0 0 0 -1.1-4.1l-1.732-1a1 1 0 0 0 -1.364.37zm5.232-5.062.866.5a1 1 0 1 1 -1 1.732l-.866-.5z" fill="#57b7eb"/><path d="m33.08 37.486a1.006 1.006 0 0 0 .5-.133l5.2-3a1 1 0 0 0 -1-1.733l-5.2 3a1 1 0 0 0 .5 1.866z" fill="#84d2f4"/><path d="m35.578 41.816h.061l4.464-.267a1 1 0 0 0 -.12-2l-4.464.267a1 1 0 0 0 .059 2z" fill="#84d2f4"/><path d="m33.594 27.591a1 1 0 0 0 -1.386.283l-2.464 3.731a1 1 0 1 0 1.669 1.1l2.464-3.731a1 1 0 0 0 -.283-1.383z" fill="#84d2f4"/><g fill="#f9e109"><path d="m6 15a3 3 0 1 0 -3-3 3 3 0 0 0 3 3zm0-4a1 1 0 1 1 -1 1 1 1 0 0 1 1-1z"/><path d="m42 54a3 3 0 1 0 3-3 3 3 0 0 0 -3 3zm4 0a1 1 0 1 1 -1-1 1 1 0 0 1 1 1z"/><path d="m8.355 37.32a1 1 0 0 0 1.414 0l.707-.707.708.707a1 1 0 0 0 1.416-1.414l-.71-.706.708-.708a1 1 0 0 0 -1.414-1.414l-.708.708-.707-.708a1 1 0 0 0 -1.414 1.414l.707.708-.707.707a1 1 0 0 0 0 1.413z"/><path d="m60 43.415.707-.708a1 1 0 0 0 -1.414-1.414l-.707.707-.708-.707a1 1 0 0 0 -1.414 1.414l.708.708-.708.707a1 1 0 1 0 1.414 1.414l.708-.707.707.707a1 1 0 0 0 1.414-1.414z"/></g></g></g></g></svg>