<svg height="512" viewBox="0 0 64 64" width="512" xmlns="http://www.w3.org/2000/svg"><g id="Flat"><g id="Color_copy" data-name="Color copy"><g><g><path d="m35 27h8v12h-8z" fill="#c4f236"/><g fill="#f9e109"><path d="m49 36-6 3v-12l6 3z"/><path d="m38.329 48a2.671 2.671 0 0 1 -2.607-3.25l1.278-5.75h4v6.329a2.671 2.671 0 0 1 -2.671 2.671z"/><path d="m21 23v20a23.817 23.817 0 0 1 13.211-4h.789v-12h-.789a23.817 23.817 0 0 1 -13.211-4z"/></g><path d="m35 34v5h-.79a23.779 23.779 0 0 0 -13.21 4v-14a21.95 21.95 0 0 0 13.97 5z" fill="#fcbc04"/><path d="m45 29v-1l-2-1v12l6-3v-2.1a5 5 0 0 1 -4-4.9z" fill="#fcbc04"/><path d="m41 39v3.03a3 3 0 0 0 -2.52 2.32l-.79 3.57a2.671 2.671 0 0 1 -1.97-3.17l1.28-5.75z" fill="#fcbc04"/><path d="m35 34v5h8v-12l-.234.937a8.005 8.005 0 0 1 -7.766 6.063z" fill="#a1d51c"/><path d="m49 31h-2a1 1 0 0 0 0 2h2z" fill="#e59730"/><path d="m43 30h-3a1 1 0 0 0 0 2h3z" fill="#7ab92d"/><path d="m43 34h-3a1 1 0 0 0 0 2h3z" fill="#7ab92d"/></g><g fill="#f9e109"><path d="m11 20h-6l3-4z"/><path d="m20 16h-6l3-4z"/><path d="m39 13h-6l3-4z"/><path d="m57 14h-6l3-4z"/><path d="m17 32h-3a1 1 0 0 0 0 2h3a1 1 0 0 0 0-2z"/><path d="m16.553 28.9a1 1 0 1 0 .894-1.79l-2-1a1 1 0 0 0 -.894 1.79z"/><path d="m16.553 37.1-2 1a1 1 0 0 0 .894 1.79l2-1a1 1 0 1 0 -.894-1.79z"/><path d="m56 21h-1v-7a1 1 0 0 0 -2 0v7h-13a3 3 0 0 1 -3-3v-5a1 1 0 0 0 -2 0v5a5.006 5.006 0 0 0 5 5h13v20.535a3 3 0 0 1 -.71 1.938l-6.37 7.527h-6.92a5.006 5.006 0 0 0 -5 5v2a1 1 0 0 0 2 0v-2a3 3 0 0 1 3-3h5.228l-1.045 1.235a5.005 5.005 0 0 0 -1.183 3.23v.535a1 1 0 0 0 2 0v-.535a3 3 0 0 1 .71-1.938l2.139-2.527h9.151a5.006 5.006 0 0 0 5-5v-24a5.006 5.006 0 0 0 -5-5zm3 29a3 3 0 0 1 -3 3h-7.459l5.276-6.235a5.005 5.005 0 0 0 1.183-3.23v-20.535h1a3 3 0 0 1 3 3z"/><path d="m16 10a3 3 0 1 0 -3-3 3 3 0 0 0 3 3zm0-4a1 1 0 1 1 -1 1 1 1 0 0 1 1-1z"/><path d="m28 45a3 3 0 1 0 3 3 3 3 0 0 0 -3-3zm0 4a1 1 0 1 1 1-1 1 1 0 0 1 -1 1z"/><path d="m25 53h-6v-3.181a5.01 5.01 0 0 0 -3.318-4.709l-3.682-1.31v-3.467a5.028 5.028 0 0 0 -1-3l-1.4-1.866a3.018 3.018 0 0 1 -.6-1.8v-5.567l6.621-4.074a5.031 5.031 0 0 0 2.379-4.261v-3.765a1 1 0 0 0 -2 0v3.765a3.019 3.019 0 0 1 -1.428 2.555l-5.572 3.429v-5.749a1 1 0 0 0 -2 0v6.979l-1.621 1a5.031 5.031 0 0 0 -2.379 4.256v6.946a5.01 5.01 0 0 0 3.318 4.709l3.682 1.315v4.795a5.006 5.006 0 0 0 5 5h2v5a1 1 0 0 0 2 0v-5h6a1 1 0 0 0 0-2zm-18.009-10.994a3.005 3.005 0 0 1 -1.991-2.825v-6.946a3.019 3.019 0 0 1 1.428-2.555l.572-.352v4.339a5.028 5.028 0 0 0 1 3l1.4 1.866a3.018 3.018 0 0 1 .6 1.8v2.748zm8.009 10.994a3 3 0 0 1 -3-3v-4.081l3.009 1.075a3.005 3.005 0 0 1 1.991 2.825v3.181z"/><path d="m7.535 55.293a1 1 0 0 0 -1.414 0l-.707.707-.707-.707a1 1 0 0 0 -1.414 1.414l.707.707-.707.708a1 1 0 1 0 1.414 1.414l.707-.708.707.708a1 1 0 1 0 1.414-1.414l-.707-.708.707-.707a1 1 0 0 0 0-1.414z"/><path d="m24.293 20.536a1 1 0 0 0 1.414 0l.707-.708.707.708a1 1 0 0 0 1.414-1.414l-.707-.708.707-.707a1 1 0 0 0 -1.414-1.414l-.707.707-.707-.707a1 1 0 0 0 -1.414 1.414l.707.707-.707.708a1 1 0 0 0 0 1.414z"/><path d="m45.293 46.536a1 1 0 0 0 1.414 0l.707-.708.707.708a1 1 0 1 0 1.414-1.414l-.707-.708.707-.707a1 1 0 1 0 -1.414-1.414l-.707.707-.707-.707a1 1 0 0 0 -1.414 1.414l.707.707-.707.708a1 1 0 0 0 0 1.414z"/><path d="m4.879 13.536a1 1 0 0 0 1.414 0l.707-.708.707.708a1 1 0 1 0 1.414-1.414l-.707-.708.707-.707a1 1 0 0 0 -1.414-1.414l-.707.707-.707-.707a1 1 0 0 0 -1.414 1.414l.707.707-.707.708a1 1 0 0 0 0 1.414z"/><path d="m35.293 7.536.707-.708.707.708a1 1 0 0 0 1.414-1.414l-.707-.708.707-.707a1 1 0 1 0 -1.414-1.414l-.707.707-.707-.707a1 1 0 0 0 -1.414 1.414l.707.707-.707.708a1 1 0 1 0 1.414 1.414z"/><path d="m54 9a3 3 0 1 0 -3-3 3 3 0 0 0 3 3zm0-4a1 1 0 1 1 -1 1 1 1 0 0 1 1-1z"/></g></g></g></g></svg>