<svg height="512" viewBox="0 0 64 64" width="512" xmlns="http://www.w3.org/2000/svg"><g id="Flat"><g id="Color_copy" data-name="Color copy"><g><g><rect fill="#f9e109" height="6" rx="2" width="16" x="11" y="49"/><path d="m13 51v-2a2 2 0 0 0 -2 2v2a2 2 0 0 0 2 2h12a2 2 0 0 0 2-2h-12a2 2 0 0 1 -2-2z" fill="#fcbc04"/><g fill="#e59730"><path d="m18 55v-2a1 1 0 0 1 2 0v2z"/><path d="m22 55v-2a1 1 0 0 1 2 0v2z"/><path d="m14 55v-2a1 1 0 0 1 2 0v2z"/></g></g><g><rect fill="#f9e109" height="6" rx="2" width="16" x="13" y="55"/><path d="m15 57v-2a2 2 0 0 0 -2 2v2a2 2 0 0 0 2 2h12a2 2 0 0 0 2-2h-12a2 2 0 0 1 -2-2z" fill="#fcbc04"/><g fill="#e59730"><path d="m20 61v-2a1 1 0 0 1 2 0v2z"/><path d="m24 61v-2a1 1 0 0 1 2 0v2z"/><path d="m16 61v-2a1 1 0 0 1 2 0v2z"/></g></g><path d="m51 3-10 10h4v48h12v-48h4z" fill="#84d2f4"/><path d="m51 46v-43l-10 10h4v48h12v-8.08a6.994 6.994 0 0 1 -6-6.92z" fill="#57b7eb"/><g><path d="m7 37h10v12h-10z" fill="#f9e109"/><g fill="#84d2f4"><path d="m3 47 4 2v-12l-4 2z"/><path d="m17 37v12a25.428 25.428 0 0 1 11.367 2.683l2.633 1.317v-20l-2.633 1.317a25.428 25.428 0 0 1 -11.367 2.683z"/><path d="m14.4 61a3.068 3.068 0 0 1 -2.977-2.325l-2.423-9.675h5l3.229 7.75a3.069 3.069 0 0 1 -2.829 4.25z"/></g><path d="m7 41h10v4h-10z" fill="#c4f236"/><path d="m27 45a8 8 0 0 1 -8-8v-.089c-.664.053-1.331.089-2 .089v12a25.428 25.428 0 0 1 11.367 2.683l2.633 1.317v-8z" fill="#57b7eb"/><path d="m13.213 56.851a3.9 3.9 0 0 1 2.182-4.5l-1.395-3.351h-5l2.419 9.675a3.063 3.063 0 0 0 2.828 2.312z" fill="#57b7eb"/><path d="m15 37v9a6 6 0 0 1 -6-6v-3h-2v12h10v-12z" fill="#fcbc04"/><g fill="#a1d51c"><path d="m9.09 41h-2.09v4h4.686a5.993 5.993 0 0 1 -2.596-4z"/><path d="m15 41h2v4h-2z"/></g><path d="m5 38v4a2.99 2.99 0 0 1 -2 2.816v2.184l4 2v-12z" fill="#57b7eb"/></g><circle cx="43" cy="24" fill="#f9e109" r="7"/><path d="m32 14-5-5h5z" fill="#f9e109"/><circle cx="43" cy="24" fill="#fcbc04" r="3"/><path d="m47 27a6.989 6.989 0 0 1 -6.524-9.524 7 7 0 1 0 9.048 9.048 6.983 6.983 0 0 1 -2.524.476z" fill="#fcbc04"/><path d="m43 21a3 3 0 1 0 3 3 3 3 0 0 0 -3-3zm1.555 5.552a7.008 7.008 0 0 1 -4.107-4.107 2.966 2.966 0 0 1 1.552-.445 3 3 0 0 1 3 3 2.966 2.966 0 0 1 -.445 1.552z" fill="#e59730"/><g><rect fill="#f9e109" height="6" rx="2" width="16" x="35" y="55"/><path d="m37 57v-2a2 2 0 0 0 -2 2v2a2 2 0 0 0 2 2h12a2 2 0 0 0 2-2h-12a2 2 0 0 1 -2-2z" fill="#fcbc04"/><g fill="#e59730"><path d="m42 61v-2a1 1 0 0 1 2 0v2z"/><path d="m46 61v-2a1 1 0 0 1 2 0v2z"/><path d="m38 61v-2a1 1 0 0 1 2 0v2z"/></g></g><g fill="#f9e109"><path d="m29.248 10.341-5.8 6.634a3 3 0 0 1 -2.263 1.025h-3.185a5.006 5.006 0 0 0 -5 5v3a3 3 0 0 1 -3 3h-6a1 1 0 0 0 0 2h6a5.006 5.006 0 0 0 5-5v-3a3 3 0 0 1 3-3h3.185a5 5 0 0 0 3.763-1.708l5.8-6.633a1 1 0 1 0 -1.5-1.318z"/><path d="m37 3a3 3 0 1 0 3 3 3 3 0 0 0 -3-3zm0 4a1 1 0 1 1 1-1 1 1 0 0 1 -1 1z"/><path d="m19 16a3 3 0 1 0 -3-3 3 3 0 0 0 3 3zm0-4a1 1 0 1 1 -1 1 1 1 0 0 1 1-1z"/><path d="m21.121 24.879a1 1 0 0 0 -1.414 0l-.707.707-.707-.707a1 1 0 1 0 -1.414 1.414l.707.707-.707.707a1 1 0 1 0 1.414 1.414l.707-.707.707.707a1 1 0 1 0 1.414-1.414l-.707-.707.707-.707a1 1 0 0 0 0-1.414z"/><path d="m3.879 13.121a1 1 0 0 0 1.414 0l.707-.707.707.707a1 1 0 1 0 1.414-1.414l-.707-.707.707-.707a1 1 0 1 0 -1.414-1.414l-.707.707-.707-.707a1 1 0 1 0 -1.414 1.414l.707.707-.707.707a1 1 0 0 0 0 1.414z"/></g><g><rect fill="#f9e109" height="6" rx="2" width="16" x="35" y="49"/><path d="m37 51v-2a2 2 0 0 0 -2 2v2a2 2 0 0 0 2 2h12a2 2 0 0 0 2-2h-12a2 2 0 0 1 -2-2z" fill="#fcbc04"/><g fill="#e59730"><path d="m42 55v-2a1 1 0 0 1 2 0v2z"/><path d="m46 55v-2a1 1 0 0 1 2 0v2z"/><path d="m38 55v-2a1 1 0 0 1 2 0v2z"/></g></g><g><rect fill="#f9e109" height="6" rx="2" width="16" x="31" y="43"/><path d="m33 45v-2a2 2 0 0 0 -2 2v2a2 2 0 0 0 2 2h12a2 2 0 0 0 2-2h-12a2 2 0 0 1 -2-2z" fill="#fcbc04"/><g fill="#e59730"><path d="m38 49v-2a1 1 0 0 1 2 0v2z"/><path d="m42 49v-2a1 1 0 0 1 2 0v2z"/><path d="m34 49v-2a1 1 0 0 1 2 0v2z"/></g></g><g><rect fill="#f9e109" height="6" rx="2" width="16" x="35" y="37"/><path d="m37 39v-2a2 2 0 0 0 -2 2v2a2 2 0 0 0 2 2h12a2 2 0 0 0 2-2h-12a2 2 0 0 1 -2-2z" fill="#fcbc04"/><g fill="#e59730"><path d="m42 43v-2a1 1 0 0 1 2 0v2z"/><path d="m46 43v-2a1 1 0 0 1 2 0v2z"/><path d="m38 43v-2a1 1 0 0 1 2 0v2z"/></g></g><g><rect fill="#f9e109" height="6" rx="2" width="16" x="31" y="31"/><path d="m33 33v-2a2 2 0 0 0 -2 2v2a2 2 0 0 0 2 2h12a2 2 0 0 0 2-2h-12a2 2 0 0 1 -2-2z" fill="#fcbc04"/><g fill="#e59730"><path d="m38 37v-2a1 1 0 0 1 2 0v2z"/><path d="m42 37v-2a1 1 0 0 1 2 0v2z"/><path d="m34 37v-2a1 1 0 0 1 2 0v2z"/></g></g></g></g></g></svg>