<?xml version="1.0" encoding="iso-8859-1"?>
<!-- Generator: Adobe Illustrator 19.0.0, SVG Export Plug-In . SVG Version: 6.00 Build 0)  -->
<svg version="1.1" id="Layer_1" xmlns="http://www.w3.org/2000/svg" xmlns:xlink="http://www.w3.org/1999/xlink" x="0px" y="0px"
	 viewBox="0 0 512 512" style="enable-background:new 0 0 512 512;" xml:space="preserve">
<g>
	<g>
		<g>
			<path d="M149.333,0H64C28.645,0,0,28.645,0,64v85.333c0,35.355,28.645,64,64,64h85.333c35.355,0,64-28.645,64-64V64
				C213.333,28.645,184.689,0,149.333,0z M170.667,149.333c0,11.791-9.542,21.333-21.333,21.333H64
				c-11.791,0-21.333-9.542-21.333-21.333V64c0-11.791,9.542-21.333,21.333-21.333h85.333c11.791,0,21.333,9.542,21.333,21.333
				V149.333z"/>
			<path d="M448,0h-85.333c-35.355,0-64,28.645-64,64v85.333c0,35.355,28.645,64,64,64H448c35.355,0,64-28.645,64-64V64
				C512,28.645,483.355,0,448,0z M469.333,149.333c0,11.791-9.542,21.333-21.333,21.333h-85.333
				c-11.791,0-21.333-9.542-21.333-21.333V64c0-11.791,9.542-21.333,21.333-21.333H448c11.791,0,21.333,9.542,21.333,21.333V149.333
				z"/>
			<path d="M149.333,298.667H64c-35.355,0-64,28.645-64,64V448c0,35.355,28.645,64,64,64h85.333c35.355,0,64-28.645,64-64v-85.333
				C213.333,327.311,184.689,298.667,149.333,298.667z M170.667,448c0,11.791-9.542,21.333-21.333,21.333H64
				c-11.791,0-21.333-9.542-21.333-21.333v-85.333c0-11.791,9.542-21.333,21.333-21.333h85.333c11.791,0,21.333,9.542,21.333,21.333
				V448z"/>
			<path d="M490.667,384h-64v-64c0-11.782-9.551-21.333-21.333-21.333C393.551,298.667,384,308.218,384,320v64h-64
				c-11.782,0-21.333,9.551-21.333,21.333c0,11.782,9.551,21.333,21.333,21.333h64v64c0,11.782,9.551,21.333,21.333,21.333
				c11.782,0,21.333-9.551,21.333-21.333v-64h64c11.782,0,21.333-9.551,21.333-21.333C512,393.551,502.449,384,490.667,384z"/>
		</g>
	</g>
</g>
<g>
</g>
<g>
</g>
<g>
</g>
<g>
</g>
<g>
</g>
<g>
</g>
<g>
</g>
<g>
</g>
<g>
</g>
<g>
</g>
<g>
</g>
<g>
</g>
<g>
</g>
<g>
</g>
<g>
</g>
</svg>
