<?xml version="1.0" encoding="iso-8859-1"?>
<!-- Generator: Adobe Illustrator 19.0.0, SVG Export Plug-In . SVG Version: 6.00 Build 0)  -->
<svg version="1.1" id="Layer_1" xmlns="http://www.w3.org/2000/svg" xmlns:xlink="http://www.w3.org/1999/xlink" x="0px" y="0px"
	 viewBox="0 0 512 512" style="enable-background:new 0 0 512 512;" xml:space="preserve">
<g>
	<g>
		<path d="M497.348,34.305L338.059,11.549c-1.224-0.174-3.297-0.22-4.828,0L176.356,33.96L19.481,11.549
			C9.175,10.079,0,18.094,0,28.444V460.8c0,8.494,6.245,15.693,14.652,16.895l159.289,22.756c1.456,0.207,3.091,0.248,4.828,0
			l156.876-22.411l156.875,22.411c10.304,1.471,19.481-6.54,19.481-16.895V51.2C512,42.706,505.755,35.505,497.348,34.305z
			 M159.289,463.876L34.133,445.998V48.122l125.156,17.879V463.876z M318.578,445.997l-125.156,17.879V66.001l125.156-17.879
			V445.997z M477.867,463.876l-125.156-17.879V48.122l125.156,17.879V463.876z"/>
	</g>
</g>
<g>
	<g>
		<path d="M415.289,301.511c-25.095,0-45.511,20.416-45.511,45.511c0,19.061,11.784,35.412,28.444,42.179v21.259
			c0,9.425,7.641,17.067,17.067,17.067s17.067-7.641,17.067-17.067v-21.259c16.66-6.766,28.444-23.117,28.444-42.179
			C460.8,321.927,440.384,301.511,415.289,301.511z M415.289,358.4c-6.274,0-11.378-5.104-11.378-11.378
			c0-6.274,5.104-11.378,11.378-11.378c6.274,0,11.378,5.104,11.378,11.378C426.667,353.296,421.563,358.4,415.289,358.4z"/>
	</g>
</g>
<g>
	<g>
		<path d="M96.711,75.39c-25.095,0-45.511,20.416-45.511,45.511c0,19.061,11.784,35.412,28.444,42.179v21.259
			c0,9.425,7.641,17.067,17.067,17.067s17.067-7.641,17.067-17.067V163.08c16.66-6.766,28.444-23.117,28.444-42.179
			C142.222,95.805,121.806,75.39,96.711,75.39z M96.711,132.279c-6.274,0-11.378-5.104-11.378-11.378
			c0-6.274,5.104-11.378,11.378-11.378c6.274,0,11.378,5.104,11.378,11.378C108.089,127.175,102.985,132.279,96.711,132.279z"/>
	</g>
</g>
<g>
</g>
<g>
</g>
<g>
</g>
<g>
</g>
<g>
</g>
<g>
</g>
<g>
</g>
<g>
</g>
<g>
</g>
<g>
</g>
<g>
</g>
<g>
</g>
<g>
</g>
<g>
</g>
<g>
</g>
</svg>
